<svg xmlns="http://www.w3.org/2000/svg" viewBox="0 0 800 500">
  <defs>
    <linearGradient id="bg" x1="0" y1="0" x2="1" y2="1">
      <stop offset="0" stop-color="#1b1040"/>
      <stop offset="1" stop-color="#0a0f1f"/>
    </linearGradient>
    <linearGradient id="qr" x1="0" y1="0" x2="1" y2="1">
      <stop offset="0" stop-color="#a78bfa"/>
      <stop offset="1" stop-color="#8b5cf6"/>
    </linearGradient>
  </defs>
  <rect width="800" height="500" fill="url(#bg)"/>
  <circle cx="680" cy="60" r="180" fill="#8b5cf6" opacity="0.14"/>
  <circle cx="80" cy="460" r="150" fill="#22d3ee" opacity="0.08"/>
  <g transform="translate(290,140)" fill="url(#qr)">
    <rect x="0" y="0" width="60" height="60" rx="10" fill="none" stroke="url(#qr)" stroke-width="12"/>
    <rect x="18" y="18" width="24" height="24" rx="5"/>
    <rect x="160" y="0" width="60" height="60" rx="10" fill="none" stroke="url(#qr)" stroke-width="12"/>
    <rect x="178" y="18" width="24" height="24" rx="5"/>
    <rect x="0" y="160" width="60" height="60" rx="10" fill="none" stroke="url(#qr)" stroke-width="12"/>
    <rect x="18" y="178" width="24" height="24" rx="5"/>
    <rect x="90" y="0" width="24" height="24" rx="5" opacity="0.85"/>
    <rect x="122" y="32" width="24" height="24" rx="5" opacity="0.6"/>
    <rect x="90" y="64" width="24" height="24" rx="5" opacity="0.85"/>
    <rect x="0" y="90" width="24" height="24" rx="5" opacity="0.6"/>
    <rect x="36" y="122" width="24" height="24" rx="5" opacity="0.85"/>
    <rect x="90" y="96" width="56" height="56" rx="10" opacity="0.95"/>
    <rect x="160" y="90" width="24" height="24" rx="5" opacity="0.85"/>
    <rect x="196" y="122" width="24" height="24" rx="5" opacity="0.6"/>
    <rect x="90" y="160" width="24" height="24" rx="5" opacity="0.6"/>
    <rect x="122" y="192" width="24" height="24" rx="5" opacity="0.85"/>
    <rect x="160" y="160" width="24" height="24" rx="5" opacity="0.85"/>
    <rect x="196" y="196" width="24" height="24" rx="5" opacity="0.95"/>
  </g>
  <rect x="250" y="100" width="300" height="6" rx="3" fill="#22d3ee" opacity="0.9">
    <animate attributeName="y" values="100;400;100" dur="3.4s" repeatCount="indefinite"/>
  </rect>
  <text x="400" y="452" text-anchor="middle" font-family="Menlo, monospace" font-size="20" fill="#94a3c0" letter-spacing="6">SCAN · ATTEND · DONE</text>
</svg>
